<?xml version="1.0" encoding="UTF-8"?>
<!-- Generator: Adobe Illustrator 27.3.1, SVG Export Plug-In . SVG Version: 6.00 Build 0)  -->
<svg version="1.1" id="Layer_1" xmlns="http://www.w3.org/2000/svg" xmlns:xlink="http://www.w3.org/1999/xlink" x="0px" y="0px" viewBox="0 0 950 449" style="enable-background:new 0 0 950 449;" xml:space="preserve">
<style type="text/css">
	.st0{fill:#D7414F;}
</style>
<path class="st0" d="M249.134,411.583c0-20.656-16.732-37.417-37.386-37.417c-20.639,0-37.371,16.761-37.371,37.417  S191.109,449,211.748,449C232.403,449,249.134,432.239,249.134,411.583"/>
<path class="st0" d="M423.624,224.327l0.004-87.132c0-20.656-16.732-37.417-37.386-37.417h-87.235  c-68.826,0-124.621,55.84-124.621,124.722c0,2.779,0.123,5.528,0.302,8.262c0.048,0.727,0.105,1.449,0.165,2.172  c0.197,2.372,0.451,4.727,0.778,7.06c0.052,0.371,0.086,0.746,0.141,1.116c0.396,2.644,0.89,5.255,1.448,7.842  c0.143,0.664,0.303,1.321,0.457,1.981c0.497,2.131,1.046,4.242,1.651,6.329c0.153,0.529,0.291,1.064,0.451,1.591  c0.759,2.496,1.596,4.958,2.504,7.385c0.207,0.554,0.434,1.097,0.649,1.648c0.777,1.989,1.603,3.951,2.478,5.889  c0.263,0.582,0.517,1.168,0.789,1.745c1.096,2.331,2.251,4.628,3.484,6.877c0.216,0.394,0.45,0.776,0.67,1.167  c1.075,1.911,2.201,3.788,3.372,5.635c0.364,0.574,0.726,1.147,1.098,1.714c1.411,2.148,2.867,4.264,4.404,6.317  c0.109,0.146,0.228,0.284,0.338,0.43c1.451,1.92,2.968,3.784,4.525,5.615c0.447,0.525,0.897,1.044,1.352,1.562  c1.543,1.755,3.124,3.473,4.762,5.138c0.179,0.181,0.347,0.372,0.526,0.553c1.804,1.812,3.676,3.552,5.588,5.251  c0.501,0.445,1.01,0.879,1.518,1.316c1.626,1.399,3.286,2.757,4.983,4.072c0.387,0.3,0.764,0.613,1.155,0.909  c2.03,1.535,4.113,3.002,6.238,4.413c0.515,0.342,1.04,0.666,1.56,1.001c1.766,1.135,3.562,2.227,5.388,3.274  c0.527,0.302,1.047,0.614,1.579,0.909c2.241,1.242,4.52,2.42,6.843,3.525c0.13,0.062,0.254,0.136,0.384,0.198l0.121,0.057  c28,12.993,52.917,41.227,52.917,74.131L298.998,449c68.826,0,124.621-55.84,124.621-124.722l0.005-99.604  c0-0.058,0.004-0.116,0.004-0.174C423.628,224.442,423.624,224.385,423.624,224.327z"/>
<path class="st0" d="M0,0v310.481v2.649c0.703,20.038,17.111,36.092,37.304,36.092l139.62,0.191  c-32.446-31.707-52.615-75.943-52.615-124.913V37.416C124.309,16.761,107.578,0,86.923,0H0z"/>
<path class="st0" d="M498.204,221.877V102.393c0-1.571,1.046-2.615,2.613-2.615h21.438c1.568,0,2.789,1.044,2.789,2.615v119.484  c0,1.569-1.221,2.615-2.789,2.615h-21.438C499.25,224.492,498.204,223.445,498.204,221.877z"/>
<path class="st0" d="M543.35,110.765c0-8.024,6.274-14.476,14.64-14.476s14.465,6.453,14.465,14.476  c0,8.197-6.099,14.652-14.465,14.652S543.35,118.962,543.35,110.765z M544.569,141.64c0-1.571,1.048-2.617,2.615-2.617h21.609  c1.57,0,2.617,1.047,2.617,2.617v80.237c0,1.569-1.048,2.615-2.617,2.615h-21.609c-1.568,0-2.615-1.047-2.615-2.615V141.64z"/>
<path class="st0" d="M614.288,222.399l-31.893-80.412c-0.701-1.918,0.346-2.964,2.263-2.964h21.611c1.394,0,2.789,0.698,3.31,2.093  l18.652,52.677l18.648-52.677c0.522-1.395,1.741-2.093,3.135-2.093h21.787c1.916,0,2.789,1.047,2.091,2.964l-31.893,80.412  c-0.522,1.395-1.745,2.093-3.139,2.093h-21.436C616.029,224.492,614.81,223.794,614.288,222.399z"/>
<path class="st0" d="M674.255,181.409c0-25.118,17.604-44.48,43.92-44.48c26.145,0,41.307,19.012,41.307,40.992  c0,8.719-2.267,13.954-10.106,13.954h-49.151c2.964,9.244,10.979,13.779,23.181,13.779c5.748,0,11.676-0.698,18.823-4.708  c1.394-0.698,2.091-0.351,3.135,0.871l7.147,10.117c0.697,1.047,0.697,2.442-0.872,3.837c-7.318,7.326-18.301,10.815-30.324,10.815  C693.253,226.585,674.255,207.398,674.255,181.409z M735.779,173.384c-1.741-10.29-8.541-14.476-17.429-14.476  s-16.381,4.362-18.476,14.476H735.779z"/>
<path class="st0" d="M504.654,374.716c-1.745-1.224-1.918-3.493-0.872-5.235l5.402-10.641c1.048-1.918,2.615-2.791,4.707-1.571  c7.669,4.015,14.989,6.108,22.309,6.108c10.981,0,22.657-4.537,22.657-19.189v-8.022c-5.229,6.977-13.594,11.163-25.273,11.163  c-23.876,0-39.737-17.618-39.737-42.911c0-24.942,15.861-42.732,39.913-42.732c12.027,0,20.042,4.186,25.273,11.335l0.522-6.626  c0-1.571,1.048-2.62,2.613-2.62h19.52c1.57,0,2.617,1.049,2.617,2.62v77.793c0,31.572-24.751,40.818-45.49,40.818  C525.914,385.006,513.541,381.517,504.654,374.716z M538.986,323.432c10.981,0,18.825-7.324,18.825-19.014  c0-11.51-7.844-18.838-18.825-18.838c-11.154,0-19.171,7.328-19.171,18.838C519.815,316.108,527.833,323.432,538.986,323.432z"/>
<path class="st0" d="M600.345,346.632v-80.237c0-1.571,1.048-2.62,2.613-2.62h20.568c1.57,0,2.438,0.702,2.613,2.791l0.872,11.339  c2.789-9.241,8.19-16.219,18.126-16.219c4.183,0,6.45,1.22,7.844,2.264c1.219,0.873,1.565,1.922,1.565,3.489v17.443  c0,2.093-1.219,2.615-3.661,2.093c-1.741-0.522-3.657-0.873-6.27-0.873c-10.983,0-17.604,6.63-17.604,19.365v41.165  c0,1.571-1.223,2.615-2.789,2.615h-21.265C601.393,349.247,600.345,348.203,600.345,346.632z"/>
<path class="st0" d="M659.089,306.511c0-25.289,18.998-44.825,44.793-44.825c25.795,0,44.964,19.536,44.964,44.825  c0,25.293-19.169,44.829-44.964,44.829C678.087,351.34,659.089,331.804,659.089,306.511z M703.882,326.92  c10.808,0,19.174-7.85,19.174-20.409s-8.366-20.409-19.174-20.409s-19.174,7.85-19.174,20.409S693.074,326.92,703.882,326.92z"/>
<path class="st0" d="M759.495,315.932v-49.537c0-1.571,1.044-2.62,2.613-2.62h21.265c1.57,0,2.789,1.049,2.789,2.62v43.258  c0,11.335,4.88,17.267,14.289,17.267c9.063,0,14.815-5.933,14.815-17.267v-43.258c0-1.571,1.219-2.62,2.789-2.62h21.09  c1.57,0,2.789,1.049,2.789,2.62v80.237c0,1.571-1.219,2.615-2.789,2.615h-20.393c-1.57,0-2.613-0.698-2.789-2.791l-0.697-9.943  c-4.88,8.724-12.724,14.827-25.097,14.827C772.394,351.34,759.495,338.259,759.495,315.932z"/>
<path class="st0" d="M857.976,379.771V266.395c0-1.571,1.044-2.62,2.613-2.62h19.345c1.57,0,2.789,1.049,2.789,2.62l0.351,8.197  c5.577-8.026,14.294-12.906,26.667-12.906c23.878,0,40.259,19.536,40.259,44.825c0,25.469-16.381,44.829-40.259,44.829  c-10.979,0-19.174-4.011-24.922-10.817v39.247c0,1.571-1.223,2.615-2.789,2.615h-21.44  C859.02,382.386,857.976,381.342,857.976,379.771z M903.988,327.096c11.33,0,19.871-8.026,19.871-20.585  c0-12.383-8.541-20.58-19.871-20.58c-11.505,0-19.52,8.197-19.52,20.409C884.468,318.899,892.483,327.096,903.988,327.096z"/>
</svg>